# xmcd
#
# Track frame offsets:
#	150
#	18725
#	38472
#	57683
#	77777
#	94267
#	107251
#	125862
#	145072
#	161382
#	179351
#	196506
#	213385
#	229988
#	250142
#	278679
#
# Disc length: 3730 seconds
#
# Revision: 0
# Processed by: cddbd v1.5.2PL0 Copyright (c) Steve Scherf et al.
# Submitted via: audiograbber 1.83.01
#
DISCID=d90e9010
DTITLE=Variuos - Chartbuster Pro 60318
DYEAR=1900
DGENRE=COUNTRY CDG
TTITLE0=Kershaw, Sammy - Beer,bait and Ammo
TTITLE1=Chesney, Kenny - There Goes My Life
TTITLE2=Wilkinson, Amanda - Gone From Love Too Long
TTITLE3=McGraw, Tim - Watch The Wind Blow By
TTITLE4=Bentley, Dierks - My Last Name
TTITLE5=Willis, Mark - That's A Woman
TTITLE6=Rascal Flatts - One Good Love
TTITLE7=Big and Rich - Wild West Show
TTITLE8=Isaacs, Sonya - No Regrets....yet
TTITLE9=Worley, Daryrl - I Will Hold My Ground
TTITLE10=Easter, Jeff and Sheri - My Country
TTITLE11=Martins, The - I Can't Help Myself
TTITLE12=Jewell, Buddy - Sweet Southern Comfort
TTITLE13=Twain, Shania - Nah!
TTITLE14=Cyrus, Billy Ray - Always Sixteen
TTITLE15=Data - data
EXTD=
EXTT0=
EXTT1=
EXTT2=
EXTT3=
EXTT4=
EXTT5=
EXTT6=
EXTT7=
EXTT8=
EXTT9=
EXTT10=
EXTT11=
EXTT12=
EXTT13=
EXTT14=
EXTT15=
PLAYORDER=
